<svg xmlns="http://www.w3.org/2000/svg" xmlns:xlink="http://www.w3.org/1999/xlink" width="24" height="24" viewBox="0 0 24 24">
  <defs>
    <style>
      .cls-1 {
        fill: #3950b3;
        fill-rule: evenodd;
        filter: url(#filter);
      }
    </style>
    <filter id="filter" x="1605" y="98" width="24" height="24" filterUnits="userSpaceOnUse">
      <feFlood result="flood"/>
      <feComposite result="composite" operator="in" in2="SourceGraphic"/>
      <feBlend result="blend" in2="SourceGraphic"/>
    </filter>
  </defs>
  <path id="facebook" class="cls-1" d="M1626.85,98h-19.7a3.177,3.177,0,0,0-2.15,2.151v19.7a3.178,3.178,0,0,0,2.15,2.152h10.26v-9.113h-3.31v-3.294h3.31v-2.534a4.831,4.831,0,0,1,5.11-4.94,13.61,13.61,0,0,1,2.35.186v3.138h-2.34a1.517,1.517,0,0,0-1.79,1.794v2.357h4.18l-0.55,3.294h-3.63V122h6.11a3.178,3.178,0,0,0,2.15-2.152v-19.7A3.177,3.177,0,0,0,1626.85,98Z" transform="translate(-1605 -98)"/>
</svg>
