<svg xmlns="http://www.w3.org/2000/svg" width="24.21" height="24.219" viewBox="0 0 24.21 24.219">
  <defs>
    <style>
      .cls-1 {
        fill-rule: evenodd;
      }
    </style>
  </defs>
  <path id="insta" class="cls-1" d="M1630.39,98.092s3.42-.155,6.88-0.155c3.08,0,6.23.155,6.23,0.155a5.424,5.424,0,0,1,5.44,5.416s0.15,3.506.15,6.887c0,3.149-.15,6.191-0.15,6.191A5.424,5.424,0,0,1,1643.5,122s-3.16.155-6.39,0.155c-3.33,0-6.72-.155-6.72-0.155a5.43,5.43,0,0,1-5.44-5.415s-0.07-3.042-.07-6.191c0-3.381.07-6.887,0.07-6.887A5.431,5.431,0,0,1,1630.39,98.092Zm14.44,2.314a1.782,1.782,0,1,1-1.8,1.781A1.785,1.785,0,0,1,1644.83,100.406Zm-7.88,2.094a7.625,7.625,0,1,1-7.67,7.625A7.645,7.645,0,0,1,1636.95,102.5Zm0,2.656a4.907,4.907,0,1,1-4.92,4.906A4.912,4.912,0,0,1,1636.95,105.156Z" transform="translate(-1624.88 -97.938)"/>
</svg>
