<?xml version="1.0" encoding="utf-8"?>
<!-- Generator: Adobe Illustrator 20.1.0, SVG Export Plug-In . SVG Version: 6.00 Build 0)  -->
<svg version="1.1" id="Layer_1" xmlns="http://www.w3.org/2000/svg" xmlns:xlink="http://www.w3.org/1999/xlink" x="0px" y="0px"
	 viewBox="0 0 229.5 225.2" style="enable-background:new 0 0 229.5 225.2;" xml:space="preserve">
<style type="text/css">
	.st0{fill:#006635;}
	.st1{fill:none;}
	.st2{fill:#50B848;}
	.st3{fill:#D4DE25;}
	.st4{fill:#F15A22;}
	.st5{fill:#E44126;}
	.st6{fill:#CE3131;}
	.st7{fill:#A10D31;}
</style>
<g>
	<g>
		<g>
			<path class="st0" d="M89.7,173.1c0.7-0.7,1.7-1,2.9-1c1.2,0,2.2,0.3,2.9,1c0.7,0.7,1.1,1.6,1.1,2.7c0,1.1-0.4,2-1.1,2.7
				c-0.8,0.7-1.7,1-2.9,1c-1.2,0-2.1-0.3-2.9-1c-0.7-0.7-1.1-1.6-1.1-2.7C88.6,174.7,88.9,173.8,89.7,173.1z M91,177.3
				c0.4,0.4,1,0.6,1.6,0.6c1.4,0,2.2-0.9,2.2-2.1c0-0.6-0.2-1.1-0.6-1.5c-0.4-0.4-1-0.6-1.6-0.6c-1.3,0-2.2,0.9-2.2,2.1
				C90.3,176.3,90.6,176.8,91,177.3z"/>
			<path class="st0" d="M100.6,173.7v5.1c0,0.3-0.2,0.5-0.5,0.5h-0.6c-0.3,0-0.5-0.2-0.5-0.5v-6.1c0-0.3,0.2-0.5,0.5-0.5h3.7
				c0.3,0,0.5,0.2,0.5,0.5v0.5c0,0.3-0.2,0.5-0.5,0.5H100.6z"/>
			<path class="st0" d="M106.3,173.1c0.7-0.7,1.7-1,2.9-1c1.2,0,2.2,0.3,2.9,1c0.7,0.7,1.1,1.6,1.1,2.7c0,1.1-0.4,2-1.1,2.7
				c-0.8,0.7-1.7,1-2.9,1c-1.2,0-2.1-0.3-2.9-1c-0.7-0.7-1.1-1.6-1.1-2.7C105.2,174.7,105.6,173.8,106.3,173.1z M107.6,177.3
				c0.4,0.4,1,0.6,1.6,0.6c1.4,0,2.2-0.9,2.2-2.1c0-0.6-0.2-1.1-0.6-1.5c-0.4-0.4-1-0.6-1.6-0.6c-1.3,0-2.2,0.9-2.2,2.1
				C107,176.3,107.2,176.8,107.6,177.3z"/>
			<path class="st0" d="M121.1,174.6c0,0.7-0.3,1.4-0.8,1.9c-0.5,0.5-1.2,0.7-2.2,0.7c-0.3,0-0.6,0-1,0v1.6c0,0.3-0.2,0.5-0.5,0.5
				h-0.6c-0.3,0-0.5-0.2-0.5-0.5v-6.1c0-0.3,0.2-0.5,0.5-0.5c0.8,0,1.4,0,1.9,0C120.2,172.1,121.1,173.1,121.1,174.6z M117.2,175.6
				c0.4,0,0.7,0.1,0.9,0.1c0.7,0,1.2-0.4,1.2-1c0-0.6-0.4-1-1.2-1c-0.2,0-0.5,0-0.9,0V175.6z"/>
			<path class="st0" d="M124,173.1c0.7-0.7,1.7-1,2.9-1s2.2,0.3,2.9,1c0.7,0.7,1.1,1.6,1.1,2.7c0,1.1-0.4,2-1.1,2.7
				c-0.8,0.7-1.7,1-2.9,1c-1.2,0-2.1-0.3-2.9-1c-0.7-0.7-1.1-1.6-1.1-2.7C122.9,174.7,123.3,173.8,124,173.1z M125.3,177.3
				c0.4,0.4,1,0.6,1.6,0.6c1.4,0,2.2-0.9,2.2-2.1c0-0.6-0.2-1.1-0.6-1.5c-0.4-0.4-1-0.6-1.6-0.6c-1.3,0-2.2,0.9-2.2,2.1
				C124.7,176.3,124.9,176.8,125.3,177.3z"/>
			<path class="st0" d="M133.9,179.3v0.7c0,0.3-0.2,0.5-0.5,0.5h-0.5c-0.3,0-0.5-0.2-0.5-0.5v-1.8c0-0.3,0.2-0.5,0.5-0.5h0.3
				c0.2-0.3,0.5-0.8,0.7-1.5c0.2-0.7,0.4-1.6,0.5-2.6l0-0.9c0-0.3,0.3-0.5,0.5-0.5h4.1c0.3,0,0.5,0.2,0.5,0.5v5.1h0.6
				c0.3,0,0.5,0.2,0.5,0.5v1.8c0,0.3-0.2,0.5-0.5,0.5h-0.5c-0.3,0-0.5-0.2-0.5-0.5v-0.7H133.9z M137.9,177.7v-4H136l-0.1,1
				c-0.1,1.5-0.6,2.7-0.9,3H137.9z"/>
			<path class="st0" d="M83.1,187.9c0.9,0.2,1.3,0.7,1.3,1.6c0,1.5-1.2,2.2-3,2.2c-0.8,0-1.4,0-2.1,0c-0.3,0-0.5-0.3-0.5-0.5v-6.1
				c0-0.3,0.2-0.5,0.5-0.5c1.3,0,2,0,2.2,0c1.8,0,2.7,0.7,2.7,1.8C84.2,187,83.8,187.6,83.1,187.9z M80.5,187.3h1c0.6,0,1-0.2,1-0.7
				c0-0.4-0.3-0.6-1-0.6c-0.4,0-0.8,0-1,0V187.3z M80.5,188.8v1.3c0.3,0,0.6,0.1,1,0.1c0.8,0,1.2-0.2,1.2-0.7c0-0.4-0.4-0.7-1.1-0.7
				H80.5z"/>
			<path class="st0" d="M92.4,188.2v3c0,0.3-0.2,0.5-0.5,0.5h-0.6c-0.3,0-0.5-0.2-0.5-0.5V185c0-0.3,0.2-0.5,0.5-0.5h0.6
				c0.3,0,0.5,0.2,0.5,0.5v2.7l2.4-2.9c0.2-0.2,0.4-0.3,0.7-0.3h0.6c0.4,0,0.6,0.5,0.3,0.8l-2.3,2.5l1.5,1.7
				c0.1,0.1,0.3,0.3,0.3,0.4c0,0,0.1,0.1,0.1,0.1c0.1,0.1,0.3,0.2,0.4,0.2c0.4,0.1,0.5,0.1,0.6,0.5l0.1,0.5c0,0,0,0.1,0,0.1
				c0,0.3-0.3,0.5-0.8,0.5c-0.9,0-1.5-0.5-2.3-1.4L92.4,188.2z"/>
			<path class="st0" d="M103.7,190.2h-3.4l-0.5,1.1c-0.1,0.3-0.3,0.4-0.6,0.4h-0.5c-0.3,0-0.5-0.2-0.5-0.5c0-0.1,0-0.1,0-0.2
				l2.8-6.1c0.1-0.3,0.3-0.4,0.6-0.4h0.7c0.3,0,0.5,0.1,0.6,0.4l2.8,6.1c0,0.1,0,0.1,0,0.2c0,0.3-0.2,0.5-0.5,0.5h-0.6
				c-0.3,0-0.5-0.1-0.6-0.4L103.7,190.2z M102.1,186.4l-1,2.2h2L102.1,186.4z"/>
			<path class="st0" d="M113.7,187c0,0.7-0.3,1.4-0.8,1.9c-0.5,0.5-1.2,0.7-2.2,0.7c-0.3,0-0.6,0-1,0v1.6c0,0.3-0.2,0.5-0.5,0.5
				h-0.6c-0.3,0-0.5-0.2-0.5-0.5V185c0-0.3,0.2-0.5,0.5-0.5c0.8,0,1.4,0,1.9,0C112.7,184.5,113.7,185.5,113.7,187z M109.8,188
				c0.4,0,0.7,0.1,0.9,0.1c0.7,0,1.2-0.4,1.2-1c0-0.6-0.4-1-1.2-1c-0.2,0-0.5,0-0.9,0V188z"/>
			<path class="st0" d="M117.7,187.1v4c0,0.3-0.2,0.5-0.5,0.5h-0.6c-0.3,0-0.5-0.2-0.5-0.5V185c0-0.3,0.2-0.5,0.5-0.5h0.7
				c0.3,0,0.5,0.1,0.7,0.3l2.3,2.7l2.2-2.7c0.2-0.2,0.4-0.3,0.7-0.3h0.7c0.3,0,0.5,0.2,0.5,0.5v6.1c0,0.3-0.2,0.5-0.5,0.5h-0.6
				c-0.3,0-0.5-0.2-0.5-0.5v-4.1l-1.9,2.2c-0.4,0.4-0.8,0.4-1.2,0L117.7,187.1z"/>
			<path class="st0" d="M131.6,190.2h-3.4l-0.5,1.1c-0.1,0.3-0.3,0.4-0.6,0.4h-0.5c-0.3,0-0.5-0.2-0.5-0.5c0-0.1,0-0.1,0-0.2
				l2.8-6.1c0.1-0.3,0.3-0.4,0.6-0.4h0.7c0.3,0,0.5,0.1,0.6,0.4l2.8,6.1c0,0.1,0,0.1,0,0.2c0,0.3-0.2,0.5-0.5,0.5h-0.6
				c-0.3,0-0.5-0.1-0.6-0.4L131.6,190.2z M129.9,186.4l-1,2.2h2L129.9,186.4z"/>
			<path class="st0" d="M142.7,191.1c0,0.3-0.2,0.5-0.5,0.5h-0.6c-0.3,0-0.5-0.2-0.5-0.5v-2.3h-3.4v2.3c0,0.3-0.2,0.5-0.5,0.5h-0.6
				c-0.3,0-0.5-0.2-0.5-0.5V185c0-0.3,0.2-0.5,0.5-0.5h0.6c0.3,0,0.5,0.2,0.5,0.5v2.2h3.4V185c0-0.3,0.2-0.5,0.5-0.5h0.6
				c0.3,0,0.5,0.2,0.5,0.5V191.1z"/>
			<path class="st0" d="M150.3,191.1c0,0.3-0.2,0.5-0.5,0.5h-4c-0.3,0-0.5-0.2-0.5-0.5V185c0-0.3,0.2-0.5,0.5-0.5h3.9
				c0.3,0,0.5,0.2,0.5,0.5v0.5c0,0.3-0.2,0.5-0.5,0.5H147v1.2h2.4c0.3,0,0.5,0.2,0.5,0.5v0.5c0,0.3-0.2,0.5-0.5,0.5H147v1.3h2.8
				c0.3,0,0.5,0.2,0.5,0.5V191.1z"/>
		</g>
	</g>
	<g>
		<path class="st1" d="M123.7,70.4c0.1,0.2,0.2,0.4,0.2,0.7C123.9,70.8,123.8,70.6,123.7,70.4z"/>
		<path class="st1" d="M127.9,87.9c-0.1,0.2-0.1,0.5-0.2,0.7C127.8,88.3,127.9,88.1,127.9,87.9z"/>
		<path class="st1" d="M123.1,68.8c0.1,0.2,0.2,0.4,0.3,0.6C123.3,69.3,123.2,69,123.1,68.8z"/>
		<path class="st1" d="M122.4,67.3c0.1,0.2,0.2,0.4,0.3,0.6C122.6,67.7,122.5,67.5,122.4,67.3z"/>
		<path class="st1" d="M127.3,89.6c-0.1,0.2-0.2,0.4-0.3,0.6C127.2,90,127.2,89.8,127.3,89.6z"/>
		<path class="st1" d="M124.7,61.1c-0.1,0.1-0.1,0.1-0.1,0.2C124.6,61.3,124.7,61.2,124.7,61.1z"/>
		<path class="st1" d="M126.6,91.3c-0.1,0.2-0.2,0.4-0.3,0.5C126.4,91.7,126.5,91.5,126.6,91.3z"/>
		<path class="st1" d="M123.5,62.4c-0.1,0.1-0.1,0.1-0.2,0.2C123.4,62.6,123.5,62.5,123.5,62.4z"/>
		<path class="st1" d="M125.2,79.2c0,0.2,0,0.4,0,0.6C125.2,79.6,125.2,79.4,125.2,79.2z"/>
		<path class="st1" d="M125.1,80.9c0,0.2,0,0.4-0.1,0.7C125.1,81.3,125.1,81.1,125.1,80.9z"/>
		<path class="st1" d="M124.2,72c0.1,0.2,0.1,0.4,0.2,0.6C124.4,72.4,124.3,72.2,124.2,72z"/>
		<path class="st1" d="M125.2,77.6c0,0.1,0,0.3,0,0.4C125.2,77.8,125.2,77.7,125.2,77.6z"/>
		<path class="st1" d="M124.6,73.7c0,0.2,0.1,0.4,0.1,0.6C124.7,74.1,124.7,73.9,124.6,73.7z"/>
		<path class="st1" d="M125,75.5c0,0.1,0,0.3,0.1,0.4C125,75.8,125,75.6,125,75.5z"/>
		<path class="st1" d="M124.9,82.6c0,0.2-0.1,0.5-0.1,0.7C124.8,83,124.9,82.8,124.9,82.6z"/>
		<path class="st1" d="M129.2,61.9c-0.3,0.5-0.6,1-1,1.5C128.6,62.9,128.9,62.4,129.2,61.9z"/>
		<path class="st1" d="M128.5,71.9c0.1,0.2,0.1,0.5,0.2,0.7C128.6,72.4,128.6,72.1,128.5,71.9z"/>
		<path class="st1" d="M128.1,70.3c0.1,0.2,0.1,0.5,0.2,0.7C128.2,70.7,128.1,70.5,128.1,70.3z"/>
		<path class="st1" d="M127.5,68.6c0.1,0.2,0.2,0.4,0.2,0.7C127.7,69.1,127.6,68.9,127.5,68.6z"/>
		<path class="st1" d="M132.1,69.3c0.2,0.6,0.3,1.2,0.5,1.8C132.5,70.5,132.3,69.9,132.1,69.3z"/>
		<path class="st1" d="M128.4,86.2c-0.1,0.2-0.1,0.5-0.2,0.7C128.3,86.7,128.4,86.4,128.4,86.2z"/>
		<path class="st1" d="M128.9,73.6c0,0.2,0.1,0.4,0.1,0.7C129,74,128.9,73.8,128.9,73.6z"/>
		<path class="st1" d="M129.1,82.8c0,0.2-0.1,0.5-0.1,0.7C129,83.2,129.1,83,129.1,82.8z"/>
		<path class="st1" d="M128.8,84.5c0,0.2-0.1,0.5-0.2,0.7C128.7,85,128.8,84.7,128.8,84.5z"/>
		<path class="st1" d="M129.3,81.1c0,0.2,0,0.4-0.1,0.7C129.3,81.5,129.3,81.3,129.3,81.1z"/>
		<path class="st1" d="M129.2,75.4c0,0.2,0.1,0.4,0.1,0.6C129.2,75.8,129.2,75.6,129.2,75.4z"/>
		<path class="st1" d="M129.3,77.5c0,0.1,0,0.1,0,0.2C129.4,77.6,129.3,77.5,129.3,77.5z"/>
		<path class="st1" d="M129.4,79.3c0,0.2,0,0.4,0,0.5C129.4,79.7,129.4,79.5,129.4,79.3z"/>
		<path class="st1" d="M121,79.1c0,0.2,0,0.4,0,0.6C121,79.5,121,79.3,121,79.1z"/>
		<path class="st1" d="M120.9,81.2c0,0.1,0,0.3,0,0.4C120.9,81.4,120.9,81.3,120.9,81.2z"/>
		<path class="st1" d="M121,77.3c0,0.2,0,0.4,0,0.6C121,77.7,121,77.5,121,77.3z"/>
		<path class="st1" d="M120.2,73.2c0,0.2,0.1,0.3,0.1,0.5C120.3,73.6,120.3,73.4,120.2,73.2z"/>
		<path class="st1" d="M120.8,75.5c0,0.1,0,0.1,0,0.2C120.8,75.6,120.8,75.6,120.8,75.5z"/>
		<path class="st1" d="M120.5,83.4c0,0.1-0.1,0.3-0.1,0.4C120.4,83.7,120.5,83.5,120.5,83.4z"/>
		<path class="st1" d="M119.6,71.4c0.1,0.2,0.1,0.4,0.2,0.6C119.8,71.8,119.7,71.6,119.6,71.4z"/>
		<path class="st1" d="M119.3,87c-0.1,0.2-0.1,0.4-0.2,0.5C119.2,87.4,119.3,87.2,119.3,87z"/>
		<path class="st1" d="M120,85.2c-0.1,0.2-0.1,0.4-0.2,0.6C119.9,85.6,120,85.4,120,85.2z"/>
		<path class="st1" d="M123.6,87.6c-0.1,0.2-0.2,0.4-0.2,0.6C123.5,88,123.5,87.8,123.6,87.6z"/>
		<path class="st1" d="M118.9,69.7c0.1,0.1,0.1,0.3,0.2,0.4C119.1,70,119,69.9,118.9,69.7z"/>
		<path class="st1" d="M122.9,89.3c-0.1,0.2-0.2,0.4-0.2,0.5C122.8,89.6,122.8,89.5,122.9,89.3z"/>
		<path class="st1" d="M122,57.7c-0.2,0.4-0.5,0.8-0.8,1.1C121.5,58.5,121.8,58.1,122,57.7z"/>
		<path class="st1" d="M124.2,85.9c-0.1,0.2-0.1,0.5-0.2,0.7C124,86.4,124.1,86.1,124.2,85.9z"/>
		<path class="st1" d="M124.6,84.2c-0.1,0.2-0.1,0.5-0.2,0.7C124.5,84.7,124.6,84.5,124.6,84.2z"/>
		<path class="st1" d="M116.7,66.1c0.1,0.2,0.2,0.3,0.4,0.5C117,66.5,116.8,66.3,116.7,66.1z"/>
		<path class="st1" d="M117.9,67.9c0.1,0.1,0.1,0.2,0.2,0.3C118,68,118,68,117.9,67.9z"/>
		<path class="st1" d="M118.8,60.8c-0.4,0.2-0.7,0.4-1.1,0.5C118.1,61.2,118.5,61,118.8,60.8z"/>
		<path class="st1" d="M120,60c-0.3,0.3-0.7,0.5-1,0.7C119.4,60.5,119.7,60.3,120,60z"/>
		<path class="st1" d="M121.1,59c-0.3,0.3-0.6,0.6-0.9,0.9C120.5,59.6,120.8,59.3,121.1,59z"/>
		<path class="st0" d="M130.9,34.3c-1.8-1.5-4.6-1-5.7,1.1c10,5.8,13.4,18.6,7.7,28.6c0,0,0,0,0,0c-0.9,1.6-1.2,3.5-0.7,5.3
			c0,0,0,0,0,0c0.2,0.6,0.3,1.2,0.5,1.8c1.9,8,0.9,16.8-3.6,24.5c-9.2,16-29.7,21.5-45.7,12.2c-1.2,2-0.3,4.7,1.9,5.6
			c17.3,7.5,37.8,0.9,47.4-15.7c4.8-8.4,6.2-17.8,4.2-26.6c0-0.1-0.1-0.3-0.1-0.4c-0.7-3.6,0.5-6,1.1-7.7c0.1-0.2,0.2-0.4,0.3-0.7
			C142,52.4,139,41.2,130.9,34.3z"/>
		<path class="st2" d="M129.1,95.6c4.4-7.7,5.5-16.4,3.6-24.5c-0.1-0.6-0.3-1.2-0.5-1.8c0,0,0,0,0,0c-0.5-1.8-0.2-3.7,0.7-5.3
			c0,0,0,0,0,0c5.8-10,2.3-22.8-7.7-28.6l-2.1,3.6c8,4.6,10.7,14.8,6.1,22.8c-0.3,0.5-0.6,1-1,1.5c0,0.1-0.1,0.1-0.1,0.2
			c-1,1.4-1.4,3.2-0.7,4.8c0,0.1,0.1,0.2,0.1,0.3c0.1,0.2,0.2,0.4,0.2,0.7c0.1,0.3,0.2,0.6,0.3,0.9c0.1,0.2,0.1,0.5,0.2,0.7
			c0.1,0.3,0.2,0.6,0.3,1c0.1,0.2,0.1,0.5,0.2,0.7c0.1,0.3,0.1,0.7,0.2,1c0,0.2,0.1,0.4,0.1,0.7c0.1,0.4,0.1,0.7,0.1,1.1
			c0,0.2,0.1,0.4,0.1,0.6c0.1,0.5,0.1,1,0.1,1.5c0,0.1,0,0.1,0,0.2c0,0.6,0,1.1,0,1.7c0,0.2,0,0.4,0,0.5c0,0.4,0,0.8-0.1,1.2
			c0,0.2,0,0.4-0.1,0.7c0,0.4-0.1,0.7-0.1,1.1c0,0.2-0.1,0.5-0.1,0.7c-0.1,0.3-0.1,0.7-0.2,1c0,0.2-0.1,0.5-0.2,0.7
			c-0.1,0.3-0.2,0.7-0.2,1c-0.1,0.2-0.1,0.5-0.2,0.7c-0.1,0.3-0.2,0.7-0.3,1c-0.1,0.2-0.1,0.5-0.2,0.7c-0.1,0.3-0.3,0.7-0.4,1
			c-0.1,0.2-0.2,0.4-0.3,0.6c-0.2,0.4-0.3,0.7-0.5,1.1c-0.1,0.2-0.2,0.4-0.3,0.5c-0.3,0.5-0.6,1.1-0.9,1.6c-8.1,14-26,18.8-40,10.7
			l-2.1,3.6C99.4,117,119.8,111.5,129.1,95.6z"/>
		<path class="st3" d="M125.5,93.5c0.3-0.5,0.6-1.1,0.9-1.6c0.1-0.2,0.2-0.4,0.3-0.5c0.2-0.4,0.3-0.7,0.5-1.1
			c0.1-0.2,0.2-0.4,0.3-0.6c0.1-0.3,0.3-0.7,0.4-1c0.1-0.2,0.2-0.5,0.2-0.7c0.1-0.3,0.2-0.7,0.3-1c0.1-0.2,0.1-0.5,0.2-0.7
			c0.1-0.3,0.2-0.7,0.2-1c0.1-0.2,0.1-0.5,0.2-0.7c0.1-0.3,0.1-0.7,0.2-1c0-0.2,0.1-0.5,0.1-0.7c0-0.4,0.1-0.7,0.1-1.1
			c0-0.2,0-0.4,0.1-0.7c0-0.4,0-0.8,0.1-1.2c0-0.2,0-0.4,0-0.5c0-0.6,0-1.1,0-1.7c0-0.1,0-0.1,0-0.2c0-0.5-0.1-1-0.1-1.5
			c0-0.2,0-0.4-0.1-0.6c0-0.4-0.1-0.7-0.1-1.1c0-0.2-0.1-0.4-0.1-0.7c-0.1-0.3-0.1-0.7-0.2-1c-0.1-0.2-0.1-0.5-0.2-0.7
			c-0.1-0.3-0.2-0.6-0.3-1c-0.1-0.2-0.1-0.5-0.2-0.7c-0.1-0.3-0.2-0.6-0.3-0.9c-0.1-0.2-0.2-0.5-0.2-0.7c0-0.1-0.1-0.2-0.1-0.3
			c-0.6-1.6-0.3-3.4,0.7-4.8c0-0.1,0.1-0.1,0.1-0.2c0.3-0.5,0.7-1,1-1.5c4.6-8,1.9-18.2-6.1-22.8l-2.1,3.6c6,3.5,8.1,11.1,4.6,17.1
			c-0.3,0.5-0.6,0.9-0.9,1.3c-0.1,0.1-0.1,0.1-0.1,0.2c-0.3,0.4-0.7,0.8-1,1.1c-0.1,0.1-0.1,0.1-0.2,0.2c-0.1,0.1-0.2,0.2-0.3,0.3
			c-1.2,1.1-1.5,2.8-0.8,4.2c0,0.1,0.1,0.2,0.1,0.3c0.1,0.2,0.2,0.4,0.3,0.6c0.1,0.3,0.3,0.6,0.4,0.9c0.1,0.2,0.2,0.4,0.3,0.6
			c0.1,0.3,0.2,0.6,0.3,0.9c0.1,0.2,0.2,0.4,0.2,0.7c0.1,0.3,0.2,0.6,0.3,0.9c0.1,0.2,0.1,0.4,0.2,0.6c0.1,0.3,0.2,0.7,0.2,1
			c0,0.2,0.1,0.4,0.1,0.6c0.1,0.4,0.1,0.8,0.2,1.2c0,0.1,0,0.3,0.1,0.4c0.1,0.5,0.1,1.1,0.1,1.7c0,0.1,0,0.3,0,0.4
			c0,0.4,0,0.8,0,1.3c0,0.2,0,0.4,0,0.6c0,0.4,0,0.7-0.1,1.1c0,0.2,0,0.4-0.1,0.7c0,0.3-0.1,0.7-0.1,1c0,0.2-0.1,0.5-0.1,0.7
			c-0.1,0.3-0.1,0.7-0.2,1c-0.1,0.2-0.1,0.5-0.2,0.7c-0.1,0.3-0.2,0.6-0.3,1c-0.1,0.2-0.1,0.5-0.2,0.7c-0.1,0.3-0.2,0.7-0.4,1
			c-0.1,0.2-0.2,0.4-0.2,0.6c-0.1,0.4-0.3,0.7-0.5,1.1c-0.1,0.2-0.2,0.4-0.2,0.5c-0.3,0.5-0.5,1.1-0.8,1.6
			c-6.9,12-22.3,16.1-34.3,9.2l-2.1,3.6C99.5,112.2,117.4,107.5,125.5,93.5z"/>
		<path class="st4" d="M121.8,91.4c0.3-0.5,0.6-1,0.8-1.6c0.1-0.2,0.2-0.4,0.2-0.5c0.2-0.4,0.3-0.7,0.5-1.1c0.1-0.2,0.2-0.4,0.2-0.6
			c0.1-0.3,0.2-0.7,0.4-1c0.1-0.2,0.1-0.5,0.2-0.7c0.1-0.3,0.2-0.6,0.3-1c0.1-0.2,0.1-0.5,0.2-0.7c0.1-0.3,0.1-0.6,0.2-1
			c0-0.2,0.1-0.5,0.1-0.7c0-0.3,0.1-0.7,0.1-1c0-0.2,0.1-0.4,0.1-0.7c0-0.4,0-0.7,0.1-1.1c0-0.2,0-0.4,0-0.6c0-0.4,0-0.8,0-1.3
			c0-0.1,0-0.3,0-0.4c0-0.6-0.1-1.1-0.1-1.7c0-0.1,0-0.3-0.1-0.4c-0.1-0.4-0.1-0.8-0.2-1.2c0-0.2-0.1-0.4-0.1-0.6
			c-0.1-0.3-0.1-0.7-0.2-1c-0.1-0.2-0.1-0.4-0.2-0.6c-0.1-0.3-0.2-0.6-0.3-0.9c-0.1-0.2-0.1-0.4-0.2-0.7c-0.1-0.3-0.2-0.6-0.3-0.9
			c-0.1-0.2-0.2-0.4-0.3-0.6c-0.1-0.3-0.3-0.6-0.4-0.9c-0.1-0.2-0.2-0.4-0.3-0.6c0-0.1-0.1-0.2-0.1-0.3c-0.7-1.4-0.4-3.1,0.8-4.2
			c0.1-0.1,0.2-0.2,0.3-0.3c0.1-0.1,0.1-0.1,0.2-0.2c0.4-0.3,0.7-0.7,1-1.1c0.1-0.1,0.1-0.1,0.1-0.2c0.3-0.4,0.6-0.9,0.9-1.3
			c3.5-6,1.4-13.7-4.6-17.1l-2.1,3.6c4,2.3,5.4,7.4,3.1,11.4c-0.2,0.4-0.5,0.8-0.8,1.1c0,0-0.1,0.1-0.1,0.1
			c-0.3,0.3-0.6,0.6-0.9,0.9c-0.1,0-0.1,0.1-0.2,0.1c-0.3,0.3-0.7,0.5-1,0.7c-0.1,0-0.1,0.1-0.2,0.1c-0.4,0.2-0.7,0.4-1.1,0.5
			c0,0,0,0-0.1,0c-1.8,0.6-2.5,2.8-1.3,4.3c0.1,0.2,0.3,0.3,0.4,0.5c0.1,0.2,0.2,0.3,0.4,0.5c0.3,0.4,0.6,0.8,0.8,1.2
			c0.1,0.1,0.1,0.2,0.2,0.3c0.3,0.5,0.6,1.1,0.9,1.6c0.1,0.1,0.1,0.3,0.2,0.4c0.2,0.4,0.4,0.8,0.5,1.2c0.1,0.2,0.1,0.4,0.2,0.6
			c0.1,0.4,0.3,0.8,0.4,1.2c0,0.2,0.1,0.3,0.1,0.5c0.1,0.6,0.3,1.2,0.4,1.8c0,0.1,0,0.1,0,0.2c0.1,0.5,0.1,1.1,0.2,1.6
			c0,0.2,0,0.4,0,0.6c0,0.4,0,0.9,0,1.3c0,0.2,0,0.4,0,0.6c0,0.5-0.1,1-0.1,1.4c0,0.1,0,0.3,0,0.4c-0.1,0.6-0.2,1.2-0.3,1.8
			c0,0.1-0.1,0.3-0.1,0.4c-0.1,0.5-0.2,0.9-0.4,1.4c-0.1,0.2-0.1,0.4-0.2,0.6c-0.1,0.4-0.3,0.8-0.5,1.3c-0.1,0.2-0.1,0.4-0.2,0.5
			c-0.3,0.6-0.6,1.2-0.9,1.7c-5.8,10-18.6,13.4-28.6,7.7l-2.1,3.6C99.6,107.5,114.9,103.4,121.8,91.4z"/>
		<path class="st5" d="M118.2,89.3c0.3-0.6,0.6-1.1,0.9-1.7c0.1-0.2,0.2-0.4,0.2-0.5c0.2-0.4,0.3-0.8,0.5-1.3
			c0.1-0.2,0.1-0.4,0.2-0.6c0.1-0.5,0.3-0.9,0.4-1.4c0-0.1,0.1-0.3,0.1-0.4c0.1-0.6,0.2-1.2,0.3-1.8c0-0.1,0-0.3,0-0.4
			c0.1-0.5,0.1-0.9,0.1-1.4c0-0.2,0-0.4,0-0.6c0-0.4,0-0.9,0-1.3c0-0.2,0-0.4,0-0.6c0-0.5-0.1-1.1-0.2-1.6c0-0.1,0-0.1,0-0.2
			c-0.1-0.6-0.2-1.2-0.4-1.8c0-0.2-0.1-0.3-0.1-0.5c-0.1-0.4-0.2-0.8-0.4-1.2c-0.1-0.2-0.1-0.4-0.2-0.6c-0.2-0.4-0.3-0.8-0.5-1.2
			c-0.1-0.1-0.1-0.3-0.2-0.4c-0.3-0.5-0.5-1.1-0.9-1.6c-0.1-0.1-0.1-0.2-0.2-0.3c-0.3-0.4-0.5-0.8-0.8-1.2c-0.1-0.2-0.2-0.3-0.4-0.5
			c-0.1-0.2-0.2-0.3-0.4-0.5c-1.2-1.5-0.5-3.6,1.3-4.3c0,0,0,0,0.1,0c0.4-0.1,0.8-0.3,1.1-0.5c0.1,0,0.1-0.1,0.2-0.1
			c0.4-0.2,0.7-0.4,1-0.7c0.1,0,0.1-0.1,0.2-0.1c0.3-0.3,0.6-0.6,0.9-0.9c0,0,0.1-0.1,0.1-0.1c0.3-0.4,0.6-0.7,0.8-1.1
			c2.3-4,0.9-9.1-3.1-11.4l-0.8,1.3c-0.7,1.2-0.6,2.6,0.1,3.8c0.8,1.3,0.9,2.9,0.1,4.3c-0.8,1.4-2.3,2.1-3.7,2.1
			c-1.4,0-2.6,0.6-3.3,1.8l-2.8,4.9c8,4.6,10.7,14.8,6.1,22.8c-4.6,8-14.8,10.7-22.8,6.1l-2.1,3.6C99.7,102.7,112.5,99.3,118.2,89.3
			z"/>
		<path class="st6" d="M114.6,87.2c4.6-8,1.9-18.2-6.1-22.8l-2.1,3.6c6,3.5,8.1,11.1,4.6,17.1c-3.5,6-11.1,8.1-17.1,4.6l-2.1,3.6
			C99.8,97.9,110,95.2,114.6,87.2z"/>
		<path class="st7" d="M111,85.1c3.5-6,1.4-13.7-4.6-17.1l-0.6,1.1c-0.8,1.3-0.5,3,0.5,4.1c2.4,2.6,3,6.6,1.1,9.9
			c-1.9,3.2-5.5,4.7-9,4c-1.6-0.3-3.2,0.3-4,1.7l-0.6,1C99.8,93.2,107.5,91.1,111,85.1z"/>
	</g>
	<path class="st0" d="M60.6,159.9c-2.2,0-4-0.6-5.6-1.7c-2-1.5-3.3-3.7-3.7-6.6c-0.4-2.7,0.2-5.1,1.8-7.2c1.6-2.1,3.8-3.3,6.7-3.8
		c0.5-0.1,1-0.1,1.4-0.1c1.8,0,3.5,0.5,5.1,1.6c1.9,1.4,3.1,3.2,3.4,5.8c0.1,0.7,0.1,1.3,0.1,1.8c0,0.5-0.5,1.1-0.9,1.1l-11.8,1.7
		l0.2,0.4c0.7,1.5,2,2.3,3.9,2.3l0,0c0.4,0,0.8,0,1.2-0.1c1.4-0.2,2.5-0.5,3.4-1.1c0.3-0.2,0.6-0.2,0.8-0.3c0.1,0,0.2,0,0.3,0
		c0.4,0,0.7,0.2,1,0.5l0.9,1.2c0.1,0.1,0.2,0.3,0.2,0.6c0.1,0.5-0.1,0.9-0.4,1.2c-1.7,1.3-3.8,2.1-6.1,2.4
		C61.9,159.8,61.2,159.9,60.6,159.9z M60.9,145.1c-0.2,0-0.4,0-0.6,0c-2,0.3-3.2,1.4-3.6,3.4l-0.1,0.5l7.6-1.1l0-0.3
		C63.9,146.1,62.6,145.1,60.9,145.1z"/>
	<path class="st0" d="M74.1,157.9c-0.7,0-1.2-0.5-1.2-1.2l-0.2-2.1c-0.1-1,0.1-1.3,1-1.8c0.9-0.4,1.5-1.4,1.8-3c0.3-1.5,0.4-4,0.4-7
		l0-2.2c0-0.7,0.6-1.3,1.3-1.4l11.3-1c0,0,0.1,0,0.1,0c0.7,0,1.2,0.5,1.3,1.2l1.3,15.5c0,0.3-0.1,0.7-0.3,0.9
		c-0.2,0.3-0.5,0.4-0.9,0.4l-2.5,0.2c0,0-0.1,0-0.1,0c-0.7,0-1.2-0.5-1.3-1.2l-1-12.1l-4.3,0.4l-0.2,3.9c-0.4,7.1-2,10-6,10.3
		L74.1,157.9L74.1,157.9z"/>
	<path class="st0" d="M103.6,156.2c-2.8,0-5.1-0.8-6.8-2.4c-1.9-1.7-2.8-4-2.9-6.9c-0.1-2.7,0.8-5.1,2.6-7c1.8-1.9,4.1-2.9,7.1-3
		c0.1,0,0.2,0,0.3,0c2.3,0,4.3,0.7,6,2.2c1.8,1.6,2.7,3.6,2.8,6.1c0,0.7,0,1.4-0.1,1.8c0,0.5-0.6,1-1.1,1l-11.9,0.4l0.2,0.5
		c0.6,1.8,2.2,2.7,4.6,2.7c0.1,0,0.2,0,0.3,0c1.4,0,2.6-0.3,3.5-0.7c0.3-0.1,0.6-0.2,0.8-0.2h0c0.6,0,0.9,0.2,1.2,0.7l0.7,1.3
		c0.1,0.2,0.1,0.3,0.2,0.6c0,0.5-0.2,0.9-0.6,1.1c-1.8,1.1-4,1.7-6.4,1.8C103.9,156.2,103.8,156.2,103.6,156.2z M103.4,141.5
		c-2,0.1-3.4,1.1-4,3l-0.2,0.5l7.7-0.2l0-0.4c-0.1-1.7-1.5-2.9-3.4-2.9L103.4,141.5z"/>
	<path class="st0" d="M129.8,155.8c-0.7,0-1.2-0.6-1.2-1.3l0.1-5.6l-7.7-0.2l-0.1,5.6c0,0.7-0.6,1.2-1.3,1.2l-2.5-0.1
		c-0.3,0-0.7-0.1-0.9-0.4c-0.2-0.2-0.4-0.6-0.3-0.9l0.4-15.6c0-0.7,0.6-1.2,1.3-1.2l2.5,0.1c0.7,0,1.2,0.6,1.2,1.3l-0.1,5.3l7.7,0.2
		l0.1-5.3c0-0.7,0.6-1.2,1.3-1.2l2.5,0.1c0.3,0,0.7,0.1,0.9,0.4c0.2,0.2,0.4,0.6,0.3,0.9l-0.4,15.6c0,0.7-0.6,1.2-1.3,1.2
		L129.8,155.8z"/>
	<path class="st0" d="M154,157.3l-2.5-0.2c-0.3,0-0.6-0.2-0.9-0.4c-0.2-0.3-0.3-0.6-0.3-0.9l0.6-7.8l-8,4.9l-0.2,2.3
		c-0.1,0.7-0.6,1.2-1.3,1.2l-0.1,0l-2.5-0.2c-0.7-0.1-1.2-0.6-1.2-1.4l1.2-15.5c0-0.7,0.6-1.2,1.3-1.2l0.1,0l2.5,0.2
		c0.3,0,0.6,0.2,0.9,0.4c0.2,0.3,0.3,0.6,0.3,0.9l-0.6,7.8l8-4.9l0.2-2.4c0.1-0.7,0.6-1.2,1.3-1.2l0.1,0l2.5,0.2
		c0.7,0.1,1.2,0.6,1.2,1.4l-1.2,15.5C155.3,156.8,154.8,157.3,154,157.3L154,157.3z"/>
	<path class="st0" d="M192.7,162.9c-0.1,0-0.1,0-0.2,0l-2.2-0.4c-0.7-0.1-1.1-0.8-1-1.5l0.2-1l-0.8,0.7c-0.8,0.7-1.8,1.1-3.2,1.1
		c-0.5,0-1.1-0.1-1.7-0.2c-1.6-0.3-2.9-1.1-3.8-2.2c-0.8-1.2-1.1-2.7-0.8-4.4c0.6-3.1,2.7-4.8,5.8-4.8c0.5,0,1.1,0.1,1.7,0.2
		c1.5,0.3,2.6,0.8,3.3,1.6l0.5,0.6l0.2-1.1c0.4-2.1-0.5-3.4-2.4-3.7c-0.6-0.1-1.3-0.2-2-0.2c-0.4,0-0.9,0-1.3,0.1l-0.3,0
		c-0.1,0-0.2,0-0.3,0c-0.7-0.1-1-0.5-1.1-1.1L183,145c0-0.2,0-0.4,0-0.5c0.1-0.6,0.4-0.9,1-1c1-0.2,2.1-0.4,3.1-0.4
		c0.8,0,1.7,0.1,2.6,0.2c2.6,0.5,4.4,1.4,5.4,2.9c0.9,1.4,1.2,3.4,0.7,6l-1.8,9.7C193.9,162.5,193.3,162.9,192.7,162.9z M186.8,154
		c-1,0-1.7,0.5-1.9,1.4c-0.2,1,0.6,1.8,1.8,2.1c0.3,0.1,0.6,0.1,0.9,0.1h0c0.8,0,1.5-0.2,2-0.7l0.1-0.1l0.3-1.5l-0.1-0.1
		c-0.6-0.6-1.4-1-2.4-1.2C187.1,154,186.9,154,186.8,154z"/>
	<path class="st0" d="M176,155.6c-0.9-0.3-1.7-1-2.4-2l-2.9-4.3l6.2-5.5c0.2-0.2,0.4-0.5,0.4-0.7c0-0.3,0-0.6-0.2-0.9
		c-0.2-0.2-0.5-0.4-0.8-0.4l-2.6-0.3c-0.1,0-0.2,0-0.3,0c-0.6,0-1,0.2-1.4,0.6l-5.1,5.2l-1-0.1l0.7-5.3c0.1-0.7-0.4-1.3-1.1-1.4
		l-2.5-0.3c-0.1,0-0.1,0-0.2,0c-0.6,0-1.2,0.5-1.2,1.1l-2,15.4c0,0.3,0,0.7,0.3,0.9c0.2,0.3,0.5,0.4,0.8,0.5l2.5,0.3
		c0.1,0,0.1,0,0.2,0c0.6,0,1.2-0.5,1.2-1.1l0.8-5.9l1.2,0.2l2.5,4.1c1.6,2.9,3.3,4.2,5.7,4.5c0.3,0,0.6,0.1,0.7,0.1l0.1,0
		c0.6,0,1.3-0.3,1.4-1.1l0.2-1.6C177.3,156.3,177.1,156,176,155.6z"/>
	<path class="st0" d="M40.5,163.2c-1.8,0-3.5-0.4-5-1.3c-0.3-0.2-0.5-0.4-0.6-0.8c-0.1-0.3,0-0.6,0.1-0.8l0.9-1.7
		c0.2-0.4,0.4-0.6,0.8-0.6c0.1,0,0.2,0,0.3,0c0.2,0,0.4,0,0.6,0.1c1,0.4,2,0.6,3,0.6c0.6,0,1.2-0.1,1.8-0.2c0.7-0.1,2.8-0.5,2.6-1.8
		c-0.1-0.5-0.5-1.1-1.9-1.1c-0.5,0-1.1,0.1-1.8,0.2L40,156c-0.1,0-0.2,0-0.2,0c-0.6,0-1-0.4-1.1-0.9l-0.4-2.1
		c-0.1-0.6,0.3-1.2,0.9-1.4l1.1-0.2c0.8-0.2,1.4-0.3,1.8-0.5c0.7-0.4,0.8-0.8,0.7-1.1c-0.1-0.4-0.4-1-1.5-1c-0.3,0-0.6,0-1,0.1
		c-1.4,0.3-2.4,0.8-3.3,1.5c-0.3,0.3-0.6,0.5-0.9,0.6c0,0-0.1,0-0.1,0c-0.2,0-0.5-0.1-0.8-0.4l-1.4-1.2c-0.2-0.2-0.3-0.4-0.4-0.7
		c-0.1-0.4,0-0.7,0.2-0.9c1.4-1.7,3.4-2.8,6.2-3.3c0.7-0.1,1.5-0.2,2.1-0.2c1.1,0,2.1,0.2,3.1,0.6c1.4,0.6,2.2,1.7,2.6,3.3
		c0.3,1.6-0.1,2.9-1.2,3.7l-0.9,0.7l1.2,0.1c1.9,0.2,3,1.4,3.4,3.6c0.6,3.1-2,5.7-6.7,6.6C42.2,163.1,41.4,163.2,40.5,163.2z"/>
</g>
</svg>
