<svg xmlns="http://www.w3.org/2000/svg" xmlns:xlink="http://www.w3.org/1999/xlink" width="25" height="25" viewBox="0 0 25 25">
  <defs>
    <style>
      .cls-1 {
        fill-rule: evenodd;
        filter: url(#filter);
      }
    </style>
    <filter id="filter" x="1546" y="98" width="25" height="25" filterUnits="userSpaceOnUse">
      <feFlood result="flood"/>
      <feComposite result="composite" operator="in" in2="SourceGraphic"/>
      <feBlend result="blend" in2="SourceGraphic"/>
    </filter>
  </defs>
  <path id="Forma_1" data-name="Forma 1" class="cls-1" d="M1569.67,98h-22.34a1.327,1.327,0,0,0-1.33,1.33V121.67a1.326,1.326,0,0,0,1.33,1.329h22.34a1.332,1.332,0,0,0,1.33-1.329V99.329A1.333,1.333,0,0,0,1569.67,98Zm-3.76,14.08c0.68,0.665,1.4,1.291,2.02,2.026a6.072,6.072,0,0,1,.72,1.037,0.749,0.749,0,0,1-.46,1.161h-2.99a2.316,2.316,0,0,1-1.91-.776c-0.41-.422-0.8-0.872-1.2-1.307a2.62,2.62,0,0,0-.54-0.481,0.62,0.62,0,0,0-.99.242,3.083,3.083,0,0,0-.32,1.4,0.791,0.791,0,0,1-.95.924,7.69,7.69,0,0,1-4.29-.921,9.6,9.6,0,0,1-2.88-2.7,35.9,35.9,0,0,1-3.79-6.765c-0.24-.533-0.07-0.818.52-0.83,0.98-.019,1.95-0.016,2.93,0a0.851,0.851,0,0,1,.81.608,18.333,18.333,0,0,0,1.99,3.682,3.283,3.283,0,0,0,.75.825,0.46,0.46,0,0,0,.78-0.227,2.569,2.569,0,0,0,.17-0.773,11.139,11.139,0,0,0-.05-2.706,1.125,1.125,0,0,0-.96-1.033c-0.29-.054-0.24-0.16-0.11-0.323a1.09,1.09,0,0,1,.92-0.457h3.39a0.8,0.8,0,0,1,.72.881v3.759a1.121,1.121,0,0,0,.48.96,0.669,0.669,0,0,0,.68-0.331,11.469,11.469,0,0,0,1.9-2.928c0.23-.463.43-0.944,0.62-1.424a0.724,0.724,0,0,1,.77-0.524l3.25,0a1.7,1.7,0,0,1,.29.017,0.565,0.565,0,0,1,.53.866,8.383,8.383,0,0,1-1.29,2.245c-0.55.751-1.13,1.478-1.67,2.233A1.027,1.027,0,0,0,1565.91,112.08Z" transform="translate(-1546 -98)"/>
</svg>
